<svg xmlns="http://www.w3.org/2000/svg" viewBox="0 0 48 48">
  <circle cx="24" cy="24" r="20" fill="#ffffff" />
  <path d="M31 6H17c-1.1 0-2 .9-2 2v32c0 1.1.9 2 2 2h14c1.1 0 2-.9 2-2V8c0-1.1-.9-2-2-2zm-7 2.5c.83 0 1.5.67 1.5 1.5s-.67 1.5-1.5 1.5-1.5-.67-1.5-1.5.67-1.5 1.5-1.5zM24 40c-1.66 0-3-1.34-3-3s1.34-3 3-3 3 1.34 3 3-1.34 3-3 3zm7-10H17V10h14v20z" fill="#00A6FB"/>
  <path d="M24 21c-2.21 0-4 1.79-4 4v2h2v-2c0-1.1.9-2 2-2s2 .9 2 2v2h2v-2c0-2.21-1.79-4-4-4z" fill="#00A6FB"/>
  <path d="M27 25h-6v6h6v-6z" fill="#00A6FB"/>
</svg>
