<svg xmlns="http://www.w3.org/2000/svg" viewBox="0 0 48 48">
  <circle cx="24" cy="24" r="20" fill="#ffffff" />
  <path d="M36 16h-4v-4c0-4.42-3.58-8-8-8s-8 3.58-8 8v4h-4c-2.21 0-4 1.79-4 4v20c0 2.21 1.79 4 4 4h24c2.21 0 4-1.79 4-4V20c0-2.21-1.79-4-4-4zm-12 16c-2.21 0-4-1.79-4-4s1.79-4 4-4 4 1.79 4 4-1.79 4-4 4zm6.2-16H17.8v-4c0-3.42 2.78-6.2 6.2-6.2s6.2 2.78 6.2 6.2v4z" fill="#00A6FB"/>
  <path d="M26 28c0 1.1-.9 2-2 2s-2-.9-2-2 .9-2 2-2 2 .9 2 2z" fill="#ffffff"/>
  <path d="M23 28h2v6h-2z" fill="#00A6FB"/>
</svg>
